# xmcd CD database file
#
# Track frame offsets:
#	150
#	8840
#	24342
#	37050
#	47977
#	61422
#	77490
#	96122
#	117505
#	139227
#	163360
#	185167
#	208817
#
# Disc length: 3061 seconds
#
# Revision: 0
# Processed by: cddbd v1.5PL3 Copyright (c) Steve Scherf et al.
# Submitted via: CDex 1.50beta9
#
DISCID=bc0bf30d
DTITLE=T.P.D - Cha-DANCE Party vol.2
DYEAR=1900
DGENRE=Pop
TTITLE0=in memory of DANCE SUMMIT
TTITLE1=ストレート・アヘッド
TTITLE2=誘惑のブギー
TTITLE3=WE SHOULD BE DANCING
TTITLE4=ラッキー・ラブ
TTITLE5=夜明けのハート
TTITLE6=そっと...
TTITLE7=I CAN'T FALL IN LOVE
TTITLE8=手紙
TTITLE9=ビバ！ケ・セラ・セラ
TTITLE10=LOVE IS THE ANSWER
TTITLE11=I'M SO EXCITED
TTITLE12=WEEKEND PARADISE
EXTD=
EXTT0=
EXTT1=
EXTT2=
EXTT3=
EXTT4=
EXTT5=
EXTT6=
EXTT7=
EXTT8=
EXTT9=
EXTT10=
EXTT11=
EXTT12=
PLAYORDER=
